PathFileType	4	(X/Y/Z)	Patient4_TMGait_0pt3_02_left_11.trc.trc
DataRate	CameraRate	NumFrames	NumMarkers	Units	OrigDataRate	OrigDataStartFrame	OrigNumFrames
51.851851851852	51.851851851852	6	33	mm	51.851851851852	53	       141
Frame#	Time	Sacral			L.Shoulder			Chest			R.Shoulder			Neck			R.ASIS			L.ASIS			R.Thigh.Superior			R.Thigh.Lateral			R.Thigh.Inferior			R.Patella			L.Thigh.Superior			L.Thigh.Lateral			L.Thigh.Inferior			L.Patella			L.Shank.Superior			L.Shank.Lateral			L.Shank.Inferior			R.Shank.Superior			R.Shank.Lateral			R.Shank.Inferior			R.Heel			R.Midfoot.Superior			R.Midfoot.Lateral			R.Toe			L.Heel			L.Midfoot.Lateral			L.Midfoot.Superior			L.Toe			L.Elbow			L.Wrist			R.Elbow			R.Wrist			
		X1	Y1	Z1	X2	Y2	Z2	X3	Y3	Z3	X4	Y4	Z4	X5	Y5	Z5	X6	Y6	Z6	X7	Y7	Z7	X8	Y8	Z8	X9	Y9	Z9	X10	Y10	Z10	X11	Y11	Z11	X12	Y12	Z12	X13	Y13	Z13	X14	Y14	Z14	X15	Y15	Z15	X16	Y16	Z16	X17	Y17	Z17	X18	Y18	Z18	X19	Y19	Z19	X20	Y20	Z20	X21	Y21	Z21	X22	Y22	Z22	X23	Y23	Z23	X24	Y24	Z24	X25	Y25	Z25	X26	Y26	Z26	X27	Y27	Z27	X28	Y28	Z28	X29	Y29	Z29	X30	Y30	Z30	X31	Y31	Z31	X32	Y32	Z32	X33	Y33	Z33	

53	22.412857142857	731.459586275558	1008.736806467849	476.543593796118	907.489292243802	1427.871164478984	284.032462167725	1022.336966635905	1353.372359359128	433.815197643346	961.601542600827	1430.368085749229	614.790990137490	909.928986274226	1489.598031151923	443.987552684434	963.971907742700	931.560638675478	577.146325524891	933.044099901358	953.625179312523	306.011127933061	965.664659425163	719.763456979176	560.685930091789	865.908515966555	625.871168354342	627.922629735936	931.552709348467	555.485514340979	552.862293166218	908.947009240424	455.511696863224	572.622456659830	993.978651169659	750.456479260890	352.077486982775	918.183019749012	622.975259717913	296.147187050792	1008.295328387638	554.381000568905	365.131629824433	1013.416845915687	479.053730360635	374.452082110155	973.590172456002	406.469113652518	368.025880962211	869.865876570839	304.714033594835	318.453314156430	902.977140413346	188.705597803051	388.817099608289	835.172841383021	389.412032698992	583.330442812540	718.886516568500	342.476418479133	647.401174923650	711.839706988669	232.342051279683	598.486171249534	512.571972496846	146.501616131826	577.248462078791	688.128472460973	112.794525417269	609.521699691275	581.720000789680	91.586654992896	644.666546707928	770.588367382914	33.538851472790	625.674675674166	755.410875850828	43.348350500006	426.467095819569	828.891130673270	39.834226237005	346.116952008267	915.070392299560	96.768120416836	373.428729253696	1040.330807309315	38.878110695312	340.782111295047	844.887524763405	1095.736214825956	136.205068971653	1010.053646334995	898.747549659573	92.403652565560	1019.530687331709	1084.297051340246	730.923852896451	1194.199082862286	893.372700267945	744.573482662880	
54	22.432142857143	730.549823445552	1006.635248443582	471.914462332805	909.786267845214	1427.166334701411	282.994087265237	1022.672165848927	1351.500087532328	433.625513135685	959.891639455457	1426.941047999610	614.579577928225	910.877553478591	1487.862651275597	443.250609155505	962.832359268832	930.014318044776	573.738650887825	933.385328181065	952.159086755947	302.350960984139	969.519776985229	718.941156736731	556.570326007700	872.834724820214	623.218742344152	624.220896955647	939.829973234154	553.855451009311	548.682223506432	918.498271973016	452.194565488914	569.540076612079	994.203531531457	748.715193065964	348.975070955839	918.284878157729	621.080561012976	293.877592049599	1007.969808109175	552.562190952984	363.622696567123	1012.802573243726	477.086972084778	373.456515157283	972.060973091321	404.439689182170	367.066682845388	867.277053718519	303.739271670868	317.472151690700	898.508943270994	187.665621320693	388.489571609884	842.583582426672	387.390304460407	580.801291743814	724.942734509758	344.977164496358	645.372516048808	714.106739353500	234.924902778798	597.578860439623	512.703561317705	157.285724200720	577.593485264096	686.336393916984	115.940610700324	609.588086019992	579.424641382107	99.542006281283	644.960258154702	764.507191459749	32.718306050500	625.818295928035	749.540507692418	43.191348611721	426.242639627276	823.068608791152	39.595749845671	345.964695945365	909.200636356220	96.630594663806	373.359662796084	1034.521150678450	38.872329575308	340.769893712931	855.240882678319	1096.346412288790	129.261044949396	1024.472561425441	902.854359796028	85.236848128553	1002.516508267916	1078.151422025456	730.247032534065	1158.913421975952	872.127484267515	752.010172282707	
55	22.451428571429	729.440371360745	1004.481328745084	467.569270848888	911.971419265196	1426.340659734321	282.229119961839	1022.904935573284	1349.522735850195	433.675554271857	958.067749052677	1423.420152090960	614.587415008461	911.824308107130	1486.030997093279	442.766430182677	961.593485473399	928.383827295939	570.541134539819	933.508100295654	950.737586424499	298.854836546070	973.876482912093	718.385808754654	552.252932051259	880.877608304926	620.591684662103	620.423666998866	949.221165965403	552.535701326805	544.123517549406	929.430613895140	449.102092250975	565.983217696585	994.219965690898	746.930430210113	345.864578536161	918.048797820772	619.215275789638	291.634188958655	1007.312611808895	550.735351317513	362.066152210297	1011.860961022232	475.150287888880	372.385805250233	970.249395787293	402.450263923294	366.030906362016	864.461100575592	302.755444259408	316.445832003913	893.928977265788	186.632947414127	388.088539553659	851.302553777059	385.615968871747	577.853256454120	732.340588321974	347.999961603941	642.932381238633	717.473560885266	238.145207102047	596.236672635067	514.028762972033	169.313441195202	577.373493230301	685.416230275243	119.871588613340	609.310145160088	578.046971897158	108.762351330383	644.868823613051	758.804018807836	31.846170820100	625.914985619640	743.653567433131	43.007185168498	425.991244433250	817.233475474249	39.330623780500	345.786826159590	903.309515608330	96.483156950504	373.252411601930	1028.703140601951	38.867897084571	340.742920196598	866.138276859849	1096.899879381305	122.905702223904	1039.750519909905	907.244090619237	79.115450640764	984.416243848782	1072.611651630717	729.529300106512	1121.474219234357	853.546239980324	757.773438094795	
56	22.470714285714	728.145611718484	1002.404736574538	463.532523954695	914.094356682441	1425.482643082921	281.735256975500	1023.052872055750	1347.538251012630	433.992563521016	956.124366343240	1419.954817796754	614.810662458593	912.772174530485	1484.205909901712	442.537104701021	960.228050157413	926.775298012017	567.628687364608	933.441214690217	949.435605027597	295.600643889043	978.584017632040	718.276153947069	547.840309339745	889.815369095232	618.236610887434	616.612036731277	959.502069007578	551.755226326986	539.322504438806	941.528318696904	446.512830227192	562.052575510927	993.996292085184	745.153582060279	342.822044632743	917.430597940857	617.450128200352	289.461092729284	1006.264370350521	548.952647190679	360.503657913742	1010.523827155498	473.293540366170	371.265116640741	968.098156954390	400.564445789648	364.941011358845	861.370747436775	301.810729507683	315.401906432463	889.229433780329	185.650314532795	387.627012236985	861.188608750348	384.287736516721	574.548855098398	740.927501072702	351.565733863769	640.060557658053	721.995562839087	241.971758305871	594.429791995080	516.655637094699	182.137890539311	576.431084323581	685.613997853974	124.519024475652	608.628496286327	577.812619109141	118.937560750711	644.267189291983	753.915385317272	31.009402900200	625.931016892384	737.757048710834	42.825635724676	425.725644789030	811.390209859786	39.064526229716	345.591645282980	897.409906764410	96.336846281758	373.111085821220	1022.878247975618	38.861631190600	340.699630336283	877.496630795993	1097.501325382434	117.205914458684	1055.859274696996	912.119913830169	74.128972988045	965.394606612418	1067.921772636355	728.733954851905	1082.517078879365	837.919619166072	761.682726292908	
57	22.490000000000	726.693398522231	1000.539115998931	459.819533219759	916.218658809726	1424.691421633699	281.507738453156	1023.136264616283	1345.652173436004	434.605164074772	954.053209184926	1416.702843963846	615.241103595364	913.721409773016	1482.500054627177	442.556394962119	958.705045922213	925.307640549358	565.073853066427	933.226064360064	948.323719419463	292.673731549120	983.459009843553	718.782965326643	543.466570807650	899.357125967704	616.398735078543	612.887120945742	970.386770323227	551.730890323879	534.459635206530	954.507744397138	444.699951346266	557.901270309131	993.510038053379	743.441514466821	339.933995756553	916.402392941623	615.857105978031	287.410089976308	1004.781914201548	547.269534743220	358.988299150419	1008.737008737111	471.569363495238	370.135072570277	965.563413125052	398.847510332916	363.832387378406	857.972858193294	300.957234886776	314.372469399106	884.407456005077	184.763201775803	387.123360363229	872.052856092359	383.580519030166	570.992513606741	750.504326703422	355.605803313601	636.773881625986	727.725104729210	246.269847510758	592.153775684811	520.681017346235	195.080552568579	574.636199547022	687.220544869303	129.700753920666	607.503571120400	578.982534661699	129.553877744103	643.048646661172	750.420784996955	30.314157727357	625.837929059982	731.858366061678	42.681244892854	425.456816680479	805.544714000577	38.825451487249	345.386938390258	891.516600622229	96.203736663006	372.940209418776	1017.048857621836	38.850358327061	340.639642381729	889.214885018806	1098.267074128224	112.213902882450	1072.722611672145	917.688254045180	70.359593989845	945.669650338486	1064.300298294922	727.800970445583	1042.717492951221	825.422794116115	763.649805011531	
58	22.509285714286	725.122205729491	999.012299010049	456.432805650815	918.414647780615	1424.069076647970	281.540559038319	1023.175409094602	1343.971615680497	435.540693256701	951.842947352790	1413.818836434806	615.866501357977	914.669403903319	1481.027019376648	442.811898115213	956.991212626091	924.103458629161	562.940433801865	932.917352558223	947.462369582979	290.162708397081	988.298863998607	720.048807946639	539.287550921958	909.161444492225	615.295295867185	609.365703062836	981.543808140305	552.642502505567	529.746961109748	968.032829379383	443.906065713764	553.726153419953	992.749789778316	741.851628708233	337.294135075387	914.953461143438	614.504937074410	285.536783046869	1002.836331968207	545.739626667322	357.582310669745	1006.458033433400	470.029804719206	369.050297524774	962.612861670477	397.361963426002	362.750859523182	854.247937233738	300.245870556041	313.390891907733	879.463264276470	184.015529184130	386.599123592045	883.672223185119	383.627388380354	567.328281078251	760.847958776320	359.952433535026	633.136178317854	734.720360525478	250.800476585229	589.440049723670	526.206532865593	207.268551024590	571.912768557891	690.567619844489	135.121805694955	605.930169370447	581.854503081323	139.917970344833	641.147844621538	749.024319671046	29.869523588921	625.623222540325	725.963970701051	42.608731125043	425.191975662770	799.703522937954	38.639908770743	345.178765226850	885.644224459089	96.095558726149	372.743991309470	1011.217984169213	38.831191389577	340.563909109437	901.184663493775	1099.314012843737	107.964027597462	1090.221783544482	924.140603645400	67.878488850187	925.504009262697	1061.922024367925	726.655125136898	1002.758085381646	816.113027450177	763.680941652889	
